# xmcd
#
# Track frame offsets:
#	183
#	28085
#	42463
#	59150
#	75665
#	88400
#	106228
#	121100
#	132545
#	153725
#	169898
#	190943
#	204115
#	219660
#
# Disc length: 3171
#
# Revision: 1
# Processed by: cddbd v1.5.1PL0 Copyright (c) Steve Scherf et al.
# Submitted via: dBpowerAMP V4.0
# Normalized: r0:TDELIM( - )
#
DISCID=ce0c610e
DTITLE=Various Artist - Acoustic Now
DYEAR=1990
DGENRE=Acoustic
TTITLE0=The Beautiful South - Song For Whoever
TTITLE1=All About Eve - Martha's Harbour
TTITLE2=Suzanne Vega - Marlene on The Wall
TTITLE3=The Graces - Tomorrow
TTITLE4=The Innocence Mission - Curious
TTITLE5=The Sandmen - Say Yes
TTITLE6=Joe Henry - Siren
TTITLE7=Lilac Time - American Eyes
TTITLE8=Indio - Hard Sun
TTITLE9=Michelle Shorked - Memories of East Texas
TTITLE10=David Wilcox - Language of The Heart
TTITLE11=Green on Red - we Had it All
TTITLE12=Robyn Hitchcock - Veins of The Queen
TTITLE13=Bodean - I'll be There
EXTD=
EXTT0=
EXTT1=
EXTT2=
EXTT3=
EXTT4=
EXTT5=
EXTT6=
EXTT7=
EXTT8=
EXTT9=
EXTT10=
EXTT11=
EXTT12=
EXTT13=
PLAYORDER=
